# xmcd
# 
# Track frame offsets:
#     150
#     19697
#     36497
#     61080
#     79757
#     98200
#     112752
#     127627
#     147937
#     165530
#     191352
#     216775
#     225475
#     244465
# 
# Disc length: 3653
# 
# Revision: 10
# Processed by: cddbd v1.5.2PL0 Copyright (c) Steve Scherf et al.
# Submitted via: BonkEnc v1.0.6
# 
DISCID=ae0e430e
DTITLE=Bobby McFerrin and The Saint Paul Chamber Orchestra - Paper Music
DYEAR=1995
DGENRE=Classical
TTITLE0=Overture to The Marriage of Figaro, K. 492 (Mozart)
TTITLE1=Menuet From String Quintet No. 1 in E Major. Op. 13, No. 5, C. 275 (Boccherini)
TTITLE2=Pavane, Op. 50 (Faure)
TTITLE3=Minuetto and Finale from Pulcinella Suite (rev. 1949) (Stravinsky)
TTITLE4=Concerto in G Minor For 2 Cellos, Strings, and Continuo, RV 531 (Vivaldi)
TTITLE5=Concerto in G Minor For 2 Cellos, Strings, and Continuo, RV 531 (Vivaldi)
TTITLE6=Concerto in G Minor For 2 Cellos, Strings, and Continuo, RV 531 (Vivaldi)
TTITLE7=Scherzo from A Midsummer Night's Dream, Op. 61, No. 1 (Mendelssohn)
TTITLE8=First Movement from Concerto for Violin, Strings and Continuo in A Minor, BWV 1041 (Bach)
TTITLE9=Eine kleine Nachtmusik, K. 525 - I. Allegro (Mozart)
TTITLE10=Eine kleine Nachtmusik, K. 525 - II. Romance, Andante (Mozart)
TTITLE11=Eine kleine Nachtmusik, K. 525 - III. Menuetto. Allegretto - Trio (Mozart)
TTITLE12=Eine kleine Nachtmusik, K. 525 - IV. Rondo. Allegro (Mozart)
TTITLE13=Andante Cantabile for Cello and String Orchestra, Op. Posth. (Tchaikovsky)
EXTD=YEAR: 1995
EXTT0=
EXTT1=
EXTT2=
EXTT3=
EXTT4=
EXTT5=
EXTT6=
EXTT7=
EXTT8=
EXTT9=
EXTT10=
EXTT11=
EXTT12=
EXTT13=
PLAYORDER=
